<svg data-v-0dd9719b="" version="1.0" xmlns="http://www.w3.org/2000/svg" xmlns:xlink="http://www.w3.org/1999/xlink" width="100%" height="100%" viewBox="0 0 340.000000 250.000000" preserveAspectRatio="xMidYMid meet" color-interpolation-filters="sRGB" style="margin: auto;"> <rect data-v-0dd9719b="" x="0" y="0" width="100%" height="100%" fill="#ffffff" fill-opacity="1" class="background"></rect> <rect data-v-0dd9719b="" x="0" y="0" width="100%" height="100%" fill="url(#watermark)" fill-opacity="1" class="watermarklayer" style="
    display: none;
"></rect> <g data-v-0dd9719b="" fill="#12c2e9" class="icon-text-wrapper icon-svg-group iconsvg" transform="translate(48.0050048828125,94.68992805480957)"><g class="iconsvg-imagesvg" transform="translate(0,0)" mask="url(#16710b29-2e3b-428b-8050-3f7c175cc876)"><g><rect fill="#12c2e9" fill-opacity="0" stroke-width="2" x="0" y="0" width="60" height="60.62014407387575" class="image-rect"></rect> <svg filter="url(#colors9567158283)" x="0" y="0" width="60" height="60.62014407387575" filtersec="colorsf3256662920" class="image-svg-svg primary" style="overflow: visible;"><svg xmlns="http://www.w3.org/2000/svg" viewBox="0.003520965576171875 0.02883549965918064 102.84648132324219 103.90988159179688"><title>资源 40</title><path d="M58.2 21.65C33.31 4.17-4.93 22.48.53 54.78 3.29 71.13 18.44 83.76 35 82.9c13.74-.71 27.2-8.32 40.36-11.9 8-2.17 16.61-3.71 25-3 .44-1.38.83-2.79 1.16-4.22-13.36-2.36-30.14 2-40.84 3.92-12.14 2.19-26.9 5.32-36.8-2.12 9.58 3.42 21.64.56 31.83-1.58 12.23-2.57 32.39-8.56 46.48-3.72 0-.31.1-.63.14-1-14.11-6.21-35.65.24-48.46 2.94-14.44 3-32.61 7.53-42.22-6.62 10.12 7.57 25 4 37.26 1.37 14.52-3.06 40.24-10.93 53.67.25a51.28 51.28 0 0 0 .27-5.28 52 52 0 0 0-85.68-39.53c14.01-5.16 30.6-2.3 41.03 9.24zm-27.49-1.57c11.35 0 22.27 8.75 22.7 20.44a23.78 23.78 0 0 0-10.87-12.07C26.91 20.28 7.9 31.38 6.2 48.44 4.49 34.28 15.34 20.1 30.71 20.08zm70.07 34.71c-13.66-10.09-38.55-2.5-52.78.49-14.44 3-32.61 7.53-42.23-6.63 10.12 7.57 25 4 37.27 1.38 16.19-3.4 46.2-12.76 57.74 4.76z" fill="#000000"></path><path d="M11.81 86.26a52 52 0 0 0 87.57-15.58c-30.03 3.51-58.9 32.49-87.57 15.58z" fill="#000000"></path></svg></svg> <defs><filter id="colors9567158283"><feColorMatrix type="matrix" values="0 0 0 0 0.0703125  0 0 0 0 0.7578125  0 0 0 0 0.91015625  0 0 0 1 0" class="icon-fecolormatrix"></feColorMatrix></filter> <filter id="colorsf3256662920"><feColorMatrix type="matrix" values="0 0 0 0 0.99609375  0 0 0 0 0.99609375  0 0 0 0 0.99609375  0 0 0 1 0" class="icon-fecolormatrix"></feColorMatrix></filter> <filter id="colorsb1704929527"><feColorMatrix type="matrix" values="0 0 0 0 0  0 0 0 0 0  0 0 0 0 0  0 0 0 1 0" class="icon-fecolormatrix"></feColorMatrix></filter></defs></g><rect v-gra="id" width="72" height="72.62014389038086" transform="translate(-6, -6)" style="pointer-events:none;" fill="url(#9AxbTECAPCdOxdVBqNuj6)"></rect></g> <g transform="translate(67,10.51007080078125)"><g data-gra="path-name" fill-rule="" class="tp-name iconsvg-namesvg" fill="url(#700e8d7b-2e5c-4664-9842-3878d0bf67a2)"><g transform="scale(1)"><g><path d="M1.69-36.9L28.76-36.9 28.76-30.93 18.93-30.93 18.93 0 11.52 0 11.52-30.93 1.69-30.93 1.69-36.9ZM32.25-14.75Q32.25-19.19 34.02-22.63 35.79-26.06 38.83-27.91 41.87-29.76 45.62-29.76L45.62-29.76Q48.9-29.76 51.36-28.44 53.81-27.12 55.3-25.11L55.3-25.11 55.3-29.29 62.75-29.29 62.75 0 55.3 0 55.3-4.28Q53.87-2.22 51.36-0.87 48.85 0.48 45.57 0.48L45.57 0.48Q41.87 0.48 38.83-1.43 35.79-3.33 34.02-6.79 32.25-10.26 32.25-14.75L32.25-14.75ZM55.3-14.64Q55.3-17.34 54.24-19.27 53.18-21.2 51.38-22.23 49.59-23.26 47.52-23.26L47.52-23.26Q45.46-23.26 43.72-22.26 41.97-21.25 40.89-19.32 39.81-17.39 39.81-14.75L39.81-14.75Q39.81-12.11 40.89-10.12 41.97-8.14 43.74-7.08 45.52-6.03 47.52-6.03L47.52-6.03Q49.59-6.03 51.38-7.06 53.18-8.09 54.24-10.02 55.3-11.95 55.3-14.64L55.3-14.64ZM81.2 0.48Q77.6 0.48 74.75-0.82 71.89-2.11 70.23-4.33 68.56-6.56 68.41-9.25L68.41-9.25 75.86-9.25Q76.07-7.56 77.52-6.45 78.98-5.34 81.15-5.34L81.15-5.34Q83.26-5.34 84.45-6.19 85.64-7.03 85.64-8.35L85.64-8.35Q85.64-9.78 84.19-10.49 82.73-11.21 79.56-12.05L79.56-12.05Q76.28-12.85 74.19-13.69 72.11-14.54 70.6-16.28 69.09-18.03 69.09-20.99L69.09-20.99Q69.09-23.42 70.49-25.43 71.89-27.44 74.51-28.6 77.13-29.76 80.67-29.76L80.67-29.76Q85.9-29.76 89.02-27.15 92.14-24.53 92.46-20.09L92.46-20.09 85.37-20.09Q85.22-21.83 83.92-22.86 82.63-23.89 80.46-23.89L80.46-23.89Q78.45-23.89 77.37-23.15 76.28-22.41 76.28-21.09L76.28-21.09Q76.28-19.61 77.76-18.85 79.24-18.08 82.36-17.29L82.36-17.29Q85.53-16.49 87.59-15.65 89.66-14.8 91.16-13.03 92.67-11.26 92.72-8.35L92.72-8.35Q92.72-5.81 91.32-3.81 89.92-1.8 87.3-0.66 84.69 0.48 81.2 0.48L81.2 0.48ZM125.76 0L116.14 0 106.2-12.48 106.2 0 98.8 0 98.8-39.12 106.2-39.12 106.2-16.86 116.04-29.29 125.66-29.29 112.76-14.59 125.76 0ZM156.9-15.28Q156.9-13.69 156.69-12.42L156.69-12.42 135.28-12.42Q135.54-9.25 137.5-7.45 139.45-5.66 142.31-5.66L142.31-5.66Q146.43-5.66 148.18-9.2L148.18-9.2 156.16-9.2Q154.89-4.97 151.3-2.25 147.7 0.48 142.47 0.48L142.47 0.48Q138.24 0.48 134.88-1.4 131.52-3.28 129.65-6.71 127.77-10.15 127.77-14.64L127.77-14.64Q127.77-19.19 129.62-22.63 131.47-26.06 134.8-27.91 138.13-29.76 142.47-29.76L142.47-29.76Q146.64-29.76 149.95-27.96 153.25-26.17 155.07-22.86 156.9-19.56 156.9-15.28L156.9-15.28ZM135.33-17.39L149.23-17.39Q149.18-20.25 147.17-21.96 145.16-23.68 142.26-23.68L142.26-23.68Q139.51-23.68 137.63-22.02 135.75-20.35 135.33-17.39L135.33-17.39ZM169.69-24.74Q171.12-27.07 173.42-28.39 175.72-29.71 178.68-29.71L178.68-29.71 178.68-21.94 176.72-21.94Q173.23-21.94 171.46-20.3 169.69-18.66 169.69-14.59L169.69-14.59 169.69 0 162.29 0 162.29-29.29 169.69-29.29 169.69-24.74Z" transform="translate(-1.690000057220459, 39.119998931884766)"></path></g> <!----> <!----> <!----> <!----> <!----> <!----> <!----></g></g> <!----></g></g><defs v-gra="od"><linearGradient x1="0" y1="1" x2="0" y2="0" id="700e8d7b-2e5c-4664-9842-3878d0bf67a2"><stop offset="0%" stop-color="#12c2e9"></stop><stop offset="50%" stop-color="#c471ed"></stop><stop offset="100%" stop-color="#f64f59"></stop></linearGradient><filter id="42443b3f1de60f6b6fd3b6a9844b4764" filterUnits="objectBoundingBox"><feColorMatrix type="matrix" values="0 0 0 0 0.99609375  0 0 0 0 0.99609375  0 0 0 0 0.99609375  0 0 0 1 0"></feColorMatrix></filter></defs><defs v-gra="id"><filter id="b9769122-6239-4008-bc41-0d65aa094303" filterUnits="userSpaceOnUse"><feColorMatrix type="matrix" values="0 0 0 0 0.99609375  0 0 0 0 0.99609375  0 0 0 0 0.99609375  0 0 0 1 0"></feColorMatrix></filter><linearGradient x1="0" y1="1" x2="0" y2="0" id="9AxbTECAPCdOxdVBqNuj6"><stop offset="0%" stop-color="#12c2e9"></stop><stop offset="50%" stop-color="#c471ed"></stop><stop offset="100%" stop-color="#f64f59"></stop></linearGradient><filter id="42443b3f1de60f6b6fd3b6a9844b4764" filterUnits="objectBoundingBox"><feColorMatrix type="matrix" values="0 0 0 0 0.99609375  0 0 0 0 0.99609375  0 0 0 0 0.99609375  0 0 0 1 0"></feColorMatrix></filter></defs><mask v-gra="im" id="16710b29-2e3b-428b-8050-3f7c175cc876"><g class="iconsvg-imagesvg" filter="url(#b9769122-6239-4008-bc41-0d65aa094303)"><g><rect fill="#12c2e9" fill-opacity="0" stroke-width="2" x="0" y="0" width="60" height="60.62014407387575" class="image-rect"></rect> <svg x="0" y="0" width="60" height="60.62014407387575" filtersec="colorsf3256662920" class="image-svg-svg primary" style="overflow: visible;"><svg xmlns="http://www.w3.org/2000/svg" viewBox="0.003520965576171875 0.02883549965918064 102.84648132324219 103.90988159179688"><title>资源 40</title><path d="M58.2 21.65C33.31 4.17-4.93 22.48.53 54.78 3.29 71.13 18.44 83.76 35 82.9c13.74-.71 27.2-8.32 40.36-11.9 8-2.17 16.61-3.71 25-3 .44-1.38.83-2.79 1.16-4.22-13.36-2.36-30.14 2-40.84 3.92-12.14 2.19-26.9 5.32-36.8-2.12 9.58 3.42 21.64.56 31.83-1.58 12.23-2.57 32.39-8.56 46.48-3.72 0-.31.1-.63.14-1-14.11-6.21-35.65.24-48.46 2.94-14.44 3-32.61 7.53-42.22-6.62 10.12 7.57 25 4 37.26 1.37 14.52-3.06 40.24-10.93 53.67.25a51.28 51.28 0 0 0 .27-5.28 52 52 0 0 0-85.68-39.53c14.01-5.16 30.6-2.3 41.03 9.24zm-27.49-1.57c11.35 0 22.27 8.75 22.7 20.44a23.78 23.78 0 0 0-10.87-12.07C26.91 20.28 7.9 31.38 6.2 48.44 4.49 34.28 15.34 20.1 30.71 20.08zm70.07 34.71c-13.66-10.09-38.55-2.5-52.78.49-14.44 3-32.61 7.53-42.23-6.63 10.12 7.57 25 4 37.27 1.38 16.19-3.4 46.2-12.76 57.74 4.76z" fill="#000000"></path><path d="M11.81 86.26a52 52 0 0 0 87.57-15.58c-30.03 3.51-58.9 32.49-87.57 15.58z" fill="#000000"></path></svg></svg> <defs><filter id="colors9567158283"><feColorMatrix type="matrix" values="0 0 0 0 0.0703125  0 0 0 0 0.7578125  0 0 0 0 0.91015625  0 0 0 1 0" class="icon-fecolormatrix"></feColorMatrix></filter> <filter id="colorsf3256662920"><feColorMatrix type="matrix" values="0 0 0 0 0.99609375  0 0 0 0 0.99609375  0 0 0 0 0.99609375  0 0 0 1 0" class="icon-fecolormatrix"></feColorMatrix></filter> <filter id="colorsb1704929527"><feColorMatrix type="matrix" values="0 0 0 0 0  0 0 0 0 0  0 0 0 0 0  0 0 0 1 0" class="icon-fecolormatrix"></feColorMatrix></filter></defs></g></g></mask></svg>